<?xml version="1.0" encoding="UTF-8"?>
<svg id="Layer_2" data-name="Layer 2" xmlns="http://www.w3.org/2000/svg" viewBox="0 0 186.37 168.97">
  <defs>
    <style>
      .cls-1 {
        fill: #fff;
        stroke-width: 0px;
      }
    </style>
  </defs>
  <g id="Layer_1-2" data-name="Layer 1">
    <g>
      <path class="cls-1" d="M117.46,1.28c3.56,2.77,24.86,19.58,38.55,27.65,5.34,3.15,10.31,6.86,15,10.93,8.74,7.6,8.49,18.03-1.05,24.95-9.43,6.84-19.15,13.3-28.94,19.62-3.81,2.46-3.64,3.65.25,5.62,12.51,6.33,24.89,12.9,37.36,19.29,4.26,2.18,7.88,4.69,7.73,10.16-.15,5.41-3.77,7.89-8.16,9.85-22.09,9.88-58.26,36.79-60.82,38.31s-5.09,2.08-8.74-.35-8.54-14.07-1.6-18.69c5.19-3.46,5.97-7.6,5.75-12.85-.21-5.07.79-10.53-.78-15.12-2.78-8.11,1.15-18.94-9.38-24.17-1.47-.73-2.51-3.31-2.99-5.05s.09-2.19.13-3.28c1.62-3.51,3.58-6.75,7.2-8.57,2.26-1.14,2.88-3.06,2.84-5.41-.29-17.38-.83-34.77-.72-52.15.04-6.99-3.67-14.45,1.82-21,2.19.09,3-2.51,6.56.26ZM127.79,107.33c1.46,7.68.32,15.51,1.07,23.28.39,4.13,1.59,3.42,4.21,1.97,7.13-3.95,14.38-7.7,21.57-11.54,1.08-.58,2.75-.75,2.83-2.18.08-1.48-1.59-1.79-2.65-2.35-7.53-3.98-15.14-7.81-22.6-11.91-3.48-1.91-4.61-.97-4.42,2.74ZM126.12,37.51c-.78,2.78.14,18.55.13,27.23,0,3.12,1.28,2.86,3.28,1.52,5.58-3.72,11.14-7.48,16.82-11.06,2.93-1.85,2.22-3.17-.16-4.7-6.37-4.1-19.29-15.77-20.07-13Z"/>
      <path class="cls-1" d="M13.05,121.39c1.16,16.85,9.64,29.93,27.46,29.93s26.19-8.9,26.19-28.83c0-17.38-6.65-26.44-28.02-36.78C15.51,74.62,4.81,64.15,4.81,42.16,4.81,22.42,17.43,5.57,41.42,5.57c27.79,0,35.59,20.43,36.04,37.67h-12.79c-.71-6.93-2.97-26.39-23.89-26.39-16.15,0-22.92,11.22-22.92,24.16,0,16,7.15,23.56,26.8,32.99,26.53,12.8,35.39,25.72,35.39,47.49,0,24.25-13.2,41.11-39.87,41.11-29.04,0-38.9-19.19-40.18-41.21h13.05Z"/>
    </g>
  </g>
</svg>